<svg width="40" height="40" viewBox="0 0 40 40" fill="none" xmlns="http://www.w3.org/2000/svg">
<g clip-path="url(#clip0_74_17169)">
<path d="M14.6 38H25.4C34.4 38 38 34.4 38 25.4V14.6C38 5.6 34.4 2 25.4 2H14.6C5.6 2 2 5.6 2 14.6V25.4C2 34.4 5.6 38 14.6 38Z" stroke="white" stroke-width="2.85" stroke-linecap="round" stroke-linejoin="round"/>
<path d="M9.40002 14.52L20 20.66L30.52 14.56" stroke="white" stroke-width="2.5" stroke-linecap="round" stroke-linejoin="round"/>
<path d="M20 31.54V20.64" stroke="white" stroke-width="2.5" stroke-linecap="round" stroke-linejoin="round"/>
<path d="M17.52 8.58002L11.12 12.14C9.68 12.94 8.47998 14.96 8.47998 16.62V23.4C8.47998 25.06 9.66 27.08 11.12 27.88L17.52 31.44C18.88 32.2 21.12 32.2 22.5 31.44L28.9 27.88C30.34 27.08 31.54 25.06 31.54 23.4V16.6C31.54 14.94 30.36 12.92 28.9 12.12L22.5 8.56001C21.12 7.80001 18.88 7.80002 17.52 8.58002Z" stroke="white" stroke-width="2.5" stroke-linecap="round" stroke-linejoin="round"/>
</g>
<defs>
<clipPath id="clip0_74_17169">
<rect width="40" height="40" fill="white"/>
</clipPath>
</defs>
</svg>
