<svg width="282" height="80" viewBox="0 0 282 80" fill="none" xmlns="http://www.w3.org/2000/svg">
<path d="M94.0571 -4.68663e-06V80H91.7714V4.91429L55.3143 68.6857H53.9429L17.4857 5.14285V80H15.2V-4.68663e-06H17.1429L54.6286 65.6L92.1143 -4.68663e-06H94.0571ZM173.035 55.8857H124.121L112.921 80H110.292L147.435 -4.68663e-06H149.721L186.863 80H184.235L173.035 55.8857ZM172.006 53.7143L148.578 3.08571L125.149 53.7143H172.006ZM266.004 -4.68663e-06V80H264.061L205.432 4.22857V80H203.146V-4.68663e-06H205.089L263.718 75.7714V-4.68663e-06H266.004Z" fill="white"/>
<path d="M94.0571 80V0H91.7714V75.0857L55.3143 11.3143H53.9429L17.4857 74.8571V0H15.2V80H17.1429L54.6286 14.4L92.1143 80H94.0571ZM173.035 24.1143H124.121L112.921 0H110.292L147.435 80H149.721L186.863 0H184.235L173.035 24.1143ZM172.006 26.2857L148.578 76.9143L125.149 26.2857H172.006ZM266.004 80V0H264.061L205.432 75.7714V0H203.146V80H205.089L263.718 4.22857V80H266.004Z" fill="white"/>
</svg>
